<svg xmlns="http://www.w3.org/2000/svg" xmlns:xlink="http://www.w3.org/1999/xlink" width="126" height="42" viewBox="0 0 126 42">
  <defs>
    <clipPath id="clip-Artboard_14">
      <rect width="126" height="42"/>
    </clipPath>
  </defs>
  <g id="Artboard_14" data-name="Artboard – 14" clip-path="url(#clip-Artboard_14)">
    <rect width="126" height="42" fill="#fff" fill-opacity="0"/>
    <g id="Group_119254" data-name="Group 119254" transform="translate(124.778 -355.973)">
      <g id="Group_117899" data-name="Group 117899" transform="translate(-76.728 367.909)">
        <path id="Path_81387" data-name="Path 81387" d="M222.415,456.962a5.513,5.513,0,0,1-1.321,3.985,5.241,5.241,0,0,1-3.94,1.366,6.172,6.172,0,0,1-2.812-.6A4.293,4.293,0,0,1,212.509,460a5.076,5.076,0,0,1-.638-2.585v-.41H215.1a2.726,2.726,0,0,0,.467,1.765,1.779,1.779,0,0,0,1.446.558,1.8,1.8,0,0,0,1.173-.33,1.539,1.539,0,0,0,.524-.831,5.049,5.049,0,0,0,.125-1.207V446.213h3.575Z" transform="translate(-211.871 -444.869)" fill="#fff"/>
        <path id="Path_81388" data-name="Path 81388" d="M309.907,439.2a1.729,1.729,0,0,1-.672.649,2.125,2.125,0,0,1-1.959,0,1.726,1.726,0,0,1-.672-.649,1.942,1.942,0,0,1,0-1.867,1.725,1.725,0,0,1,.672-.649,2.125,2.125,0,0,1,1.959,0,1.729,1.729,0,0,1,.672.649,1.943,1.943,0,0,1,0,1.867Zm-.034,2.551v11.774h-3.234V441.755Z" transform="translate(-293.363 -436.449)" fill="#fff"/>
        <path id="Path_81389" data-name="Path 81389" d="M357.88,482.177a5.327,5.327,0,0,1-2.1,2.163,6.716,6.716,0,0,1-6.24-.011,5.249,5.249,0,0,1-2.072-2.175,7.64,7.64,0,0,1,0-6.513,5.252,5.252,0,0,1,2.072-2.175,6.765,6.765,0,0,1,6.285,0,5.243,5.243,0,0,1,2.072,2.186,7,7,0,0,1,.729,3.257A6.809,6.809,0,0,1,357.88,482.177Zm-3.177-.512a4.708,4.708,0,0,0,.694-2.755,5.167,5.167,0,0,0-.638-2.7,2.255,2.255,0,0,0-2.1-1.059,2.3,2.3,0,0,0-1.981.979,5.839,5.839,0,0,0-.011,5.545,2.573,2.573,0,0,0,4.031-.011Z" transform="translate(-328.184 -467.705)" fill="#fff"/>
        <path id="Path_81390" data-name="Path 81390" d="M451.853,448.12a1.67,1.67,0,0,0-.763-1.344,3.844,3.844,0,0,0-2.084-.455,3.483,3.483,0,0,0-1.788.41,1.283,1.283,0,0,0-.695,1.161,1.76,1.76,0,0,0,.159.809,1.278,1.278,0,0,0,.581.524,6.867,6.867,0,0,0,1.241.444l2.163.569a18.877,18.877,0,0,1,2.676.9,4.63,4.63,0,0,1,1.788,1.389,3.8,3.8,0,0,1,.729,2.425,4.625,4.625,0,0,1-.774,2.664,5.046,5.046,0,0,1-2.266,1.776,9.039,9.039,0,0,1-3.564.638,10.2,10.2,0,0,1-3.291-.512,5.456,5.456,0,0,1-2.459-1.617,4.072,4.072,0,0,1-.945-2.744v-.114h3.484v.046a1.752,1.752,0,0,0,.968,1.674,5.2,5.2,0,0,0,2.448.512,4.459,4.459,0,0,0,2.1-.444,1.427,1.427,0,0,0,.843-1.332,1.575,1.575,0,0,0-.615-1.275,5.737,5.737,0,0,0-2.072-.888l-3.12-.843q-3.507-.934-3.507-4.145a4.152,4.152,0,0,1,.831-2.607,5.078,5.078,0,0,1,2.209-1.628,8.11,8.11,0,0,1,3.017-.547,9.348,9.348,0,0,1,3.12.49,4.868,4.868,0,0,1,2.22,1.515,3.918,3.918,0,0,1,.831,2.551Z" transform="translate(-410.817 -442.586)" fill="#fff"/>
        <path id="Path_81391" data-name="Path 81391" d="M553.505,439.2a1.726,1.726,0,0,1-.672.649,2.124,2.124,0,0,1-1.958,0,1.727,1.727,0,0,1-.672-.649,1.942,1.942,0,0,1,0-1.867,1.726,1.726,0,0,1,.672-.649,2.124,2.124,0,0,1,1.958,0,1.726,1.726,0,0,1,.672.649,1.942,1.942,0,0,1,0,1.867Zm-.034,2.551v11.774h-3.234V441.755Z" transform="translate(-503.44 -436.449)" fill="#fff"/>
        <path id="Path_81392" data-name="Path 81392" d="M598.655,474.582v-1.571h3.1v11.045a5.511,5.511,0,0,1-.649,2.733,4.394,4.394,0,0,1-1.981,1.811,7.6,7.6,0,0,1-3.336.649,7.287,7.287,0,0,1-2.562-.421,4.2,4.2,0,0,1-1.788-1.207,3.142,3.142,0,0,1-.729-1.879h3.211a1.481,1.481,0,0,0,.717,1,2.841,2.841,0,0,0,1.423.319,2.555,2.555,0,0,0,1.924-.695,2.753,2.753,0,0,0,.672-1.993v-1.3h-.046a3.171,3.171,0,0,1-1.355,1.344,4.276,4.276,0,0,1-2.038.478,4.53,4.53,0,0,1-2.687-.774,4.661,4.661,0,0,1-1.64-2.163,8.728,8.728,0,0,1-.546-3.211,7.761,7.761,0,0,1,.569-2.995,5.212,5.212,0,0,1,1.685-2.22,4.261,4.261,0,0,1,2.642-.843,4.046,4.046,0,0,1,2.027.467,3.541,3.541,0,0,1,1.343,1.423Zm-4.464,6.82a2.028,2.028,0,0,0,1.867,1.036,2.247,2.247,0,0,0,1.412-.455,2.818,2.818,0,0,0,.9-1.241,4.874,4.874,0,0,0,.308-1.788,5.581,5.581,0,0,0-.6-2.687,2.129,2.129,0,0,0-2.038-1.116,2.041,2.041,0,0,0-1.332.455,2.776,2.776,0,0,0-.842,1.252,5.47,5.47,0,0,0-.285,1.845A5.242,5.242,0,0,0,594.191,481.4Z" transform="translate(-538.262 -467.705)" fill="#fff"/>
        <path id="Path_81393" data-name="Path 81393" d="M701.777,484.784h-3.234v-6.467a4.1,4.1,0,0,0-.512-2.346,1.826,1.826,0,0,0-1.583-.706,2.021,2.021,0,0,0-1.685.717,3.777,3.777,0,0,0-.57,2.334v6.467H690.96V473.011h3.1v1.64h.046a4.157,4.157,0,0,1,1.492-1.435,3.926,3.926,0,0,1,1.97-.524,4.028,4.028,0,0,1,3.165,1.173,5.181,5.181,0,0,1,1.048,3.541Z" transform="translate(-625.034 -467.705)" fill="#fff"/>
      </g>
      <g id="Group_117900" data-name="Group 117900" transform="translate(-122.778 356.973)">
        <path id="Path_81394" data-name="Path 81394" d="M-88.636,391.115a20,20,0,0,1-28.284,0,20,20,0,0,1,0-28.284,20,20,0,0,1,28.284,0A20,20,0,0,1-88.636,391.115Z" transform="translate(122.778 -356.973)" fill="#00a59b"/>
        <path id="Path_81395" data-name="Path 81395" d="M-47.361,416.168l-9.8,9.167a2.58,2.58,0,0,1-.451.328.023.023,0,0,1-.013.026l-3.22,1.485a.761.761,0,0,1-1.016-1l1.439-3.281a.023.023,0,0,1,.027-.013,2.572,2.572,0,0,1,.33-.454l9.167-9.8a2.7,2.7,0,0,1,3.872-.332h0A2.7,2.7,0,0,1-47.361,416.168ZM-51.787,418l3.254-3.254a.669.669,0,0,0,0-.946h0a.669.669,0,0,0-.946,0l-3.254,3.254a.669.669,0,0,0,0,.946h0A.669.669,0,0,0-51.787,418Zm3.238,13.847a12.677,12.677,0,0,0,4.057-8.884,12.815,12.815,0,0,0-.126-2.3,1.53,1.53,0,0,0-1.736-1.292,1.53,1.53,0,0,0-1.292,1.736,9.764,9.764,0,0,1,.1,1.753,9.637,9.637,0,0,1-3.085,6.753,9.642,9.642,0,0,1-6.953,2.6,9.637,9.637,0,0,1-6.753-3.085,9.637,9.637,0,0,1-2.6-6.953A9.712,9.712,0,0,1-56.9,412.816a9.829,9.829,0,0,1,1.253.125,1.53,1.53,0,0,0,1.759-1.259,1.53,1.53,0,0,0-1.259-1.759,12.9,12.9,0,0,0-1.645-.164,12.778,12.778,0,0,0-13.2,12.3,12.677,12.677,0,0,0,3.422,9.147,12.676,12.676,0,0,0,8.883,4.057q.23.008.459.008A12.672,12.672,0,0,0-48.549,431.846Z" transform="translate(77.27 -402.488)" fill="#fff"/>
      </g>
    </g>
  </g>
</svg>
