<svg xmlns="http://www.w3.org/2000/svg" xmlns:xlink="http://www.w3.org/1999/xlink" width="542" height="413" viewBox="0 0 542 413">
  <defs>
    <clipPath id="clip-Artboard_11">
      <rect width="542" height="413"/>
    </clipPath>
  </defs>
  <g id="Artboard_11" data-name="Artboard – 11" clip-path="url(#clip-Artboard_11)">
    <rect width="542" height="413" fill="#FFFFFF"/>
    <g id="Group_119240" data-name="Group 119240" transform="translate(-145 -95.478)">
      <circle id="Ellipse_14869" data-name="Ellipse 14869" cx="205.522" cy="205.522" r="205.522" transform="translate(210.508 96.478)" fill="#cffcf9"/>
      <g id="Group_119239" data-name="Group 119239" transform="translate(146 232.527)">
        <path id="Path_81503" data-name="Path 81503" d="M799.487,726.206s90.55-138.963-5.584-176.969c-24.215-9.573-32.662-143.6-140.222-76.587-42.775,26.65-104.367-5.6-163.351,12.027-54.169,16.189-55.415,62.886-48.566,79.7,7.484,18.369-22.36,40.331-52.924,55.415C340.9,643.449,376.152,726.6,421.444,727S799.487,726.206,799.487,726.206Z" transform="translate(-338.267 -453.962)" fill="#ebf3fa"/>
        <path id="Path_81504" data-name="Path 81504" d="M400.27,1617.464H846.507s-49.251-14.889-71.906-8.973-61.589-1.4-73.137-9.08-28.071,11.078-43.126,6.405-21.236-24.354-41.249-20.075-11.467,28.188-24.939,15.164-40.635-20.361-46.947-4.5S469.152,1593.14,400.27,1617.464Z" transform="translate(-365.272 -1343.156)" fill="#a8d29f"/>
        <g id="Group_118066" data-name="Group 118066" transform="translate(118.71 21.023)">
          <g id="Group_118043" data-name="Group 118043" transform="translate(0)">
            <path id="Path_81505" data-name="Path 81505" d="M1477.442,948.192,1490.715,1106s1.391,9.566-5.725,9.583c-11.7.028-58.233,0-58.233,0s8.805-1.991,8.7-6.472c-.125-5.281-15.513-162.418-15.513-162.418Z" transform="translate(-1285.527 -862.315)" fill="#d86713"/>
            <path id="Path_81506" data-name="Path 81506" d="M1466.907,1102.2c-11.395.146-55.838.007-58.141,0,.866,0,7.551-.165,8.5-5.195a6.72,6.72,0,0,0,.111-1.276c0-.984-.545-7.228-1.423-16.743-.785-8.533-1.841-19.693-3.024-32.046-4.584-47.87-11.065-113.628-11.065-113.628l57.5,1.493,9.431,112.136,1.841,21.886,1.655,19.691.346,4.1S1474.256,1102.112,1466.907,1102.2Z" transform="translate(-1271.313 -851.795)" fill="#ee9849"/>
            <path id="Path_81507" data-name="Path 81507" d="M1123.153,552.241,1090.824,682.1l-4.426,17.785-15.058,60.485H791.6l55.5-208.13Z" transform="translate(-791.597 -552.24)" fill="#f1a34f"/>
            <path id="Path_81508" data-name="Path 81508" d="M2151.111,552.239l4.48,1.494-50.337,211.155-5.957-4.517Z" transform="translate(-1819.554 -552.239)" fill="#ee9849"/>
            <path id="Path_81509" data-name="Path 81509" d="M1077.3,1529.7H799.279l-7.677-4.517h279.742Z" transform="translate(-791.6 -1317.049)" fill="#d86713"/>
            <rect id="Rectangle_148435" data-name="Rectangle 148435" width="60.196" height="2.86" transform="translate(127.871 250.473)" fill="#f1a34f"/>
            <path id="Path_81510" data-name="Path 81510" d="M1517.759,1545.87l-.376,4.478-.014.165s-39.1,3.749-54.668,9.995c-.392-4.278-.854-9.217-1.367-14.637Z" transform="translate(-1318.064 -1333.312)" fill="#d86713"/>
            <path id="Path_81511" data-name="Path 81511" d="M1492.282,1672.53c-11.395.146-55.838.007-58.141,0,.866,0,7.551-.165,8.5-5.195,4.577.237,30.029,1.049,55.026-8.489l.346,4.1S1499.631,1672.437,1492.282,1672.53Z" transform="translate(-1296.689 -1422.121)" fill="#d86713" opacity="0.4"/>
            <path id="Path_81512" data-name="Path 81512" d="M1761.682,1334.179l-10.172,40.859h-94.184c39.823-12.652,58.674-31.159,66.271-40.859Z" transform="translate(-1472.13 -1166.906)" fill="#d86713" opacity="0.4"/>
            <path id="Path_81513" data-name="Path 81513" d="M1173.353,565.1l-39.9,164.521H858.141L902.849,565.1Z" transform="translate(-843.906 -562.35)" fill="#d2e4ff"/>
            <path id="Path_81514" data-name="Path 81514" d="M840.13,1334.179h3.4l-.682,2.508-3.293-.373Z" transform="translate(-829.299 -1166.906)" fill="#f1a34f"/>
            <path id="Path_81515" data-name="Path 81515" d="M2334.2,552.236v2.752h-2.556l.667-2.752Z" transform="translate(-2002.2 -552.236)" fill="#f1a34f"/>
          </g>
          <g id="Group_118051" data-name="Group 118051" transform="translate(61.22 17.176)">
            <path id="Path_81516" data-name="Path 81516" d="M1077.781,770.456h102.6l34.389-137.927h-102.6Z" transform="translate(-1077.781 -632.529)" fill="#fff"/>
            <g id="Group_118050" data-name="Group 118050" transform="translate(14.49 9.555)">
              <g id="Group_118045" data-name="Group 118045" transform="translate(10.363 26.125)" opacity="0.5">
                <g id="Group_118044" data-name="Group 118044" transform="translate(6.138)">
                  <path id="Path_81517" data-name="Path 81517" d="M1242.648,916.331h67.97a2.1,2.1,0,0,0,1.913-1.532l.144-.574a1.16,1.16,0,0,0-1.15-1.532h-67.969a2.1,2.1,0,0,0-1.914,1.532l-.143.574A1.16,1.16,0,0,0,1242.648,916.331Z" transform="translate(-1237.43 -888.439)" fill="#699dee"/>
                  <path id="Path_81518" data-name="Path 81518" d="M1270.916,802.955h67.97a2.1,2.1,0,0,0,1.914-1.532l.143-.574a1.16,1.16,0,0,0-1.15-1.532h-67.969a2.1,2.1,0,0,0-1.914,1.532l-.143.574A1.16,1.16,0,0,0,1270.916,802.955Z" transform="translate(-1259.65 -799.317)" fill="#699dee"/>
                  <path id="Path_81519" data-name="Path 81519" d="M1261.1,842.339h67.97a2.1,2.1,0,0,0,1.914-1.532l.143-.574a1.16,1.16,0,0,0-1.15-1.532H1262a2.1,2.1,0,0,0-1.914,1.532l-.143.574A1.16,1.16,0,0,0,1261.1,842.339Z" transform="translate(-1251.931 -830.276)" fill="#699dee"/>
                  <path id="Path_81520" data-name="Path 81520" d="M1251.872,879.335h67.97a2.1,2.1,0,0,0,1.913-1.532l.143-.574a1.16,1.16,0,0,0-1.15-1.532h-67.97a2.1,2.1,0,0,0-1.914,1.532l-.143.574A1.16,1.16,0,0,0,1251.872,879.335Z" transform="translate(-1244.68 -859.358)" fill="#699dee"/>
                  <path id="Path_81521" data-name="Path 81521" d="M1223.849,991.73h67.969a2.1,2.1,0,0,0,1.914-1.532l.143-.574a1.16,1.16,0,0,0-1.15-1.532h-67.969a2.1,2.1,0,0,0-1.914,1.532l-.143.574A1.16,1.16,0,0,0,1223.849,991.73Z" transform="translate(-1222.652 -947.709)" fill="#699dee"/>
                  <path id="Path_81522" data-name="Path 81522" d="M1233.073,954.734h67.97a2.1,2.1,0,0,0,1.914-1.532l.143-.574a1.16,1.16,0,0,0-1.15-1.532H1233.98a2.1,2.1,0,0,0-1.914,1.532l-.143.574A1.16,1.16,0,0,0,1233.073,954.734Z" transform="translate(-1229.903 -918.627)" fill="#699dee"/>
                </g>
                <path id="Path_81523" data-name="Path 81523" d="M1195.379,1107.991h16.508a2.493,2.493,0,0,0,2.272-1.819h0a1.377,1.377,0,0,0-1.365-1.819h-16.508a2.493,2.493,0,0,0-2.272,1.819h0A1.377,1.377,0,0,0,1195.379,1107.991Z" transform="translate(-1193.958 -1039.1)" fill="#699dee"/>
                <path id="Path_81524" data-name="Path 81524" d="M1431.792,1107.991H1448.3a2.493,2.493,0,0,0,2.272-1.819h0a1.377,1.377,0,0,0-1.365-1.819H1432.7a2.493,2.493,0,0,0-2.272,1.819h0A1.378,1.378,0,0,0,1431.792,1107.991Z" transform="translate(-1379.798 -1039.1)" fill="#699dee"/>
              </g>
              <g id="Group_118046" data-name="Group 118046" transform="translate(0 102.798)">
                <path id="Path_81525" data-name="Path 81525" d="M1171.5,1169.533h-24.075a1.88,1.88,0,0,1-1.526-.694,1.992,1.992,0,0,1-.31-1.747l1.736-6.961a3.276,3.276,0,0,1,2.993-2.394h24.075a1.88,1.88,0,0,1,1.526.694,1.992,1.992,0,0,1,.31,1.747l-1.735,6.961A3.276,3.276,0,0,1,1171.5,1169.533Zm-21.182-11.6a3.072,3.072,0,0,0-2.805,2.247l-1.736,6.961a1.8,1.8,0,0,0,.275,1.581,1.691,1.691,0,0,0,1.374.619H1171.5a3.072,3.072,0,0,0,2.805-2.247l1.736-6.961a1.8,1.8,0,0,0-.275-1.581,1.69,1.69,0,0,0-1.374-.62Z" transform="translate(-1145.515 -1157.737)" fill="#476ba7"/>
              </g>
              <g id="Group_118047" data-name="Group 118047" transform="translate(50.659 102.798)">
                <path id="Path_81526" data-name="Path 81526" d="M1408.314,1169.533h-24.075a1.88,1.88,0,0,1-1.526-.694,1.991,1.991,0,0,1-.31-1.747l1.736-6.961a3.275,3.275,0,0,1,2.993-2.394h24.075a1.88,1.88,0,0,1,1.526.694,1.993,1.993,0,0,1,.31,1.747l-1.736,6.961A3.276,3.276,0,0,1,1408.314,1169.533Zm-21.182-11.6a3.072,3.072,0,0,0-2.805,2.247l-1.735,6.961a1.8,1.8,0,0,0,.274,1.581,1.693,1.693,0,0,0,1.374.619h24.075a3.073,3.073,0,0,0,2.806-2.247l1.735-6.961a1.8,1.8,0,0,0-.274-1.581,1.69,1.69,0,0,0-1.374-.62Z" transform="translate(-1382.329 -1157.737)" fill="#476ba7"/>
              </g>
              <g id="Group_118048" data-name="Group 118048" transform="translate(32.458)">
                <path id="Path_81527" data-name="Path 81527" d="M1297.5,681.73a6.708,6.708,0,0,1,6.062-4.536,3.108,3.108,0,0,1,2.927,1.429l-1.588,1.328a2.134,2.134,0,0,0-1.935-.978,3.936,3.936,0,0,0-3.448,2.757c-.493,1.5.136,2.757,1.64,2.757a4.415,4.415,0,0,0,2.643-1.027l.8,1.316a6.1,6.1,0,0,1-4.085,1.491C1297.928,686.266,1296.665,684.274,1297.5,681.73Z" transform="translate(-1297.244 -677.194)" fill="#f1a34f"/>
                <path id="Path_81528" data-name="Path 81528" d="M1339.586,681.73a6.826,6.826,0,0,1,6.162-4.536c2.707,0,3.987,2.018,3.161,4.536a6.825,6.825,0,0,1-6.162,4.536C1340.041,686.266,1338.76,684.249,1339.586,681.73Zm7.305,0c.493-1.5-.2-2.757-1.752-2.757a3.963,3.963,0,0,0-3.536,2.757c-.493,1.5.2,2.757,1.752,2.757A3.963,3.963,0,0,0,1346.892,681.73Z" transform="translate(-1330.333 -677.194)" fill="#f1a34f"/>
                <path id="Path_81529" data-name="Path 81529" d="M1388.262,677.9h1.779l2.338,5.4,1.772-5.4h1.9l-2.877,8.772h-1.642l-2.419-5.576-1.829,5.576h-1.9Z" transform="translate(-1366.53 -677.746)" fill="#f1a34f"/>
                <path id="Path_81530" data-name="Path 81530" d="M1442.126,679.676h-2.669l.584-1.78h7.268l-.584,1.78h-2.669l-2.293,6.992h-1.93Z" transform="translate(-1409.035 -677.746)" fill="#f1a34f"/>
                <path id="Path_81531" data-name="Path 81531" d="M1472.5,677.9h4.01a2.563,2.563,0,0,1,2.264.89,2.3,2.3,0,0,1,.086,2.03,4.2,4.2,0,0,1-2.772,2.719l1.115,3.133h-2.256l-.984-2.807h-1.491l-.921,2.807h-1.93Zm2.487,4.261a1.886,1.886,0,0,0,1.894-1.266c.271-.827-.166-1.253-1.105-1.253h-1.917l-.826,2.519Z" transform="translate(-1432.749 -677.746)" fill="#f1a34f"/>
                <path id="Path_81532" data-name="Path 81532" d="M1515.122,677.6h1.779l.861,8.834h-2.017l-.157-1.967h-3.709l-1.447,1.967h-1.967Zm.337,5.163-.232-2.845-2.1,2.845Z" transform="translate(-1463.281 -677.516)" fill="#f1a34f"/>
                <path id="Path_81533" data-name="Path 81533" d="M1559.593,681.73a6.708,6.708,0,0,1,6.062-4.536,3.108,3.108,0,0,1,2.927,1.429l-1.589,1.328a2.133,2.133,0,0,0-1.935-.978,3.936,3.936,0,0,0-3.448,2.757c-.493,1.5.136,2.757,1.639,2.757a4.415,4.415,0,0,0,2.643-1.027l.8,1.316a6.1,6.1,0,0,1-4.086,1.491C1560.022,686.266,1558.759,684.274,1559.593,681.73Z" transform="translate(-1503.271 -677.194)" fill="#f1a34f"/>
                <path id="Path_81534" data-name="Path 81534" d="M1609.318,679.676h-2.669l.584-1.78h7.268l-.584,1.78h-2.669l-2.294,6.992h-1.93Z" transform="translate(-1540.461 -677.746)" fill="#f1a34f"/>
              </g>
              <path id="Path_81535" data-name="Path 81535" d="M1438.286,1153.274q-5.485,2.267-10.888,4.953.214-.6.384-1.211c.091-.325-.346-.541-.617-.183a5.782,5.782,0,0,1-.382.453c.091-.291-.252-.452-.546-.24-.02.014-.037.029-.055.044.142-.391-.465-.449-.691-.071l-.338.565a2.366,2.366,0,0,1-1.09.728,1.852,1.852,0,0,1-.161-.606.269.269,0,0,0-.281-.257c-.007-.2-.186-.316-.45-.2a2.474,2.474,0,0,0-.829.611c-.18-.337-.759-.1-1.069.228l.026-.055c.146-.313-.125-.669-.492-.354a4.429,4.429,0,0,0-1.346,1.973,7.612,7.612,0,0,1-.689.679c-.12.1-.678.62-.806.575s-.057-.363,0-.589l.06-.083c.464-.646,2.7-3.686,1.125-3.659a.564.564,0,0,0-.438.267,10.469,10.469,0,0,0-1.291,2.752c-.052.178-.124.409-.182.651l-.138.184a7.177,7.177,0,0,1-2.506,2.409,11.2,11.2,0,0,1,1.045-4.155q.318-.872.661-1.743a.492.492,0,0,0,.218-.113,2.771,2.771,0,0,0,1.047-3.21c-.143-.265-.58-.024-.705.257q-1.132,2.539-2.052,5.1c-.542,1.511-1.157,3.107-.931,4.5.024.147.2.2.356.167a5.886,5.886,0,0,0,2.976-2.308.483.483,0,0,0,.317.28c.538.16,1.274-.439,1.8-.94a2.092,2.092,0,0,0,.095.508c.057.177.24.216.455.13a4.191,4.191,0,0,0,1.362-.91,2.935,2.935,0,0,0,1.363-1.093,7.2,7.2,0,0,0,.671-.67,1.029,1.029,0,0,0,.187.342c.2.225.693.021,1.01-.123a3.353,3.353,0,0,0,.832-.547,1.652,1.652,0,0,0,.573-.156.466.466,0,0,0,.135.142.592.592,0,0,0,.661-.063q-.078.221-.161.441-.787.4-1.572.8c-.346.178-.427.707-.039.678l1.442-.11a.573.573,0,0,0,.483-.364c.085-.192.166-.385.244-.578q5.639-2.826,11.382-5.2C1438.935,1153.7,1438.772,1153.073,1438.286,1153.274Zm-16.755,5.533a2.363,2.363,0,0,1-.119.3c-.032.068-.069.135-.107.2A2.557,2.557,0,0,1,1421.531,1158.807Zm-1.058.9a.9.9,0,0,0-.012.548,3.266,3.266,0,0,1-.361.239,2.067,2.067,0,0,1,.041-.673c.167-.2.323-.4.469-.607A3.572,3.572,0,0,0,1420.473,1159.708Z" transform="translate(-1356.428 -1051.4)" fill="#365da2"/>
              <g id="Group_118049" data-name="Group 118049" transform="translate(6.102 99.472)">
                <path id="Path_81536" data-name="Path 81536" d="M1182.506,1142.351c-1.294,2.406-2.021,4.875-3.073,7.31a19.535,19.535,0,0,1-1.9,3.492c-.546.78-1.736,2.476-2.745,2.109-.251-.092-.321-.307-.24-.6.018-.065.04-.131.063-.2a.556.556,0,0,0,.523-.061,1.878,1.878,0,0,0,.744-.828c.151-.327.127-.668-.136-.813a.743.743,0,0,0-.822.231,2.744,2.744,0,0,0-.526.931,2.88,2.88,0,0,0-.356,1.17c.037.556.636.753,1.223.624a3.74,3.74,0,0,0,1.822-1.344,15.609,15.609,0,0,0,1.493-2.106,29.154,29.154,0,0,0,2.083-4.532,44.4,44.4,0,0,1,2.24-5.263C1183.053,1142.188,1182.659,1142.067,1182.506,1142.351Zm-7.008,10.924c.044.17-.121.393-.255.55a.88.88,0,0,1-.153.151.527.527,0,0,1-.109.065.172.172,0,0,0-.034.008.146.146,0,0,0-.136-.076c.057-.128.116-.253.173-.373C1175.067,1153.422,1175.406,1152.919,1175.5,1153.275Z" transform="translate(-1174.038 -1142.189)" fill="#365da2"/>
                <path id="Path_81537" data-name="Path 81537" d="M1210.149,1175.759a2.9,2.9,0,0,1-.822.342.783.783,0,0,1-.21.006,1.293,1.293,0,0,0,.406-.638c.049-.349-.336-.429-.661-.25a1,1,0,0,0-.5.752.515.515,0,0,0,.04.248,1.824,1.824,0,0,1-1.061.426,3.859,3.859,0,0,0,.976-.965.2.2,0,0,0,.014-.219.642.642,0,0,0-.822-.063,1.648,1.648,0,0,0-.706.849,1.213,1.213,0,0,0-.09.311,2.442,2.442,0,0,1-1.043.236v-.006q.164-.152.322-.31c.158-.158.064-.319-.083-.339a.673.673,0,0,0-.671.525,10.017,10.017,0,0,1-1.653,1.2c-.147.084-.345.255-.443.147a5.182,5.182,0,0,0,.671-.593c.4-.419.792-1.168.321-1.427a.274.274,0,0,0-.334.081l-.62.823a3.609,3.609,0,0,0-.477.74.964.964,0,0,0-.068.259,4.5,4.5,0,0,1-.656.338l-.056.023q.183-.146.365-.293a1.51,1.51,0,0,0,.67-.992,1.113,1.113,0,0,0-.432-.831c-.059-.058-.2-.03-.284.035a4.461,4.461,0,0,0-1.47,1.888.736.736,0,0,0-.021.618q-.883.673-1.787,1.316c-.064.045-.219.187-.282.166s-.034-.156-.034-.219a4.339,4.339,0,0,1,.029-.505,5.006,5.006,0,0,1,.275-1.13,6.149,6.149,0,0,1,.459-.977.24.24,0,0,0,.252-.047,1.539,1.539,0,0,0,.635-1.306c-.016-.159-.27-.135-.389,0a6.34,6.34,0,0,0-1.73,4.226c.013.3.151.557.556.389a2.944,2.944,0,0,0,.526-.337q.33-.235.658-.475.616-.45,1.224-.915a2.1,2.1,0,0,0,.725-.163,4.934,4.934,0,0,0,.836-.4.417.417,0,0,0,.439.208,2.32,2.32,0,0,0,.733-.37c.244-.147.485-.3.719-.471s.448-.335.662-.515c.05.068.135.089.282.093a2.508,2.508,0,0,0,.618-.067,3.281,3.281,0,0,0,.667-.235.422.422,0,0,0,.109.075,1.2,1.2,0,0,0,.9-.055,3.42,3.42,0,0,0,.849-.478.828.828,0,0,0,.248.066,2.481,2.481,0,0,0,1.316-.406C1210.543,1175.992,1210.445,1175.6,1210.149,1175.759Zm-8.808,2.04a3.871,3.871,0,0,1,.937-1.164.524.524,0,0,1,.091.732,2.821,2.821,0,0,1-.486.428q-.278.222-.558.441l-.147.113C1201.113,1178.222,1201.27,1177.936,1201.341,1177.8Zm2.529-1.187a1.86,1.86,0,0,1-.484.693l-.091.086C1203.463,1177.127,1203.669,1176.867,1203.87,1176.612Zm3.934-.892a2.983,2.983,0,0,1-.574.539C1207.347,1176,1207.621,1175.706,1207.8,1175.72Zm1.08-.013c.027-.045.156-.189.135-.091a.776.776,0,0,1-.183.226A.349.349,0,0,1,1208.884,1175.707Z" transform="translate(-1193.011 -1168.081)" fill="#365da2"/>
              </g>
            </g>
          </g>
          <g id="Group_118058" data-name="Group 118058" transform="translate(205.151 17.176)">
            <path id="Path_81538" data-name="Path 81538" d="M1750.6,698.568h49.127l16.465-66.04H1767.07Z" transform="translate(-1750.604 -632.529)" fill="#fff"/>
            <g id="Group_118057" data-name="Group 118057" transform="translate(6.938 5.335)">
              <g id="Group_118053" data-name="Group 118053" transform="translate(4.962)" opacity="0.5">
                <g id="Group_118052" data-name="Group 118052" transform="translate(5.055)">
                  <path id="Path_81539" data-name="Path 81539" d="M1839.434,713.495h32.544a1,1,0,0,0,.916-.733l.069-.275a.555.555,0,0,0-.551-.733h-32.544a1,1,0,0,0-.916.733l-.069.275A.555.555,0,0,0,1839.434,713.495Z" transform="translate(-1836.936 -700.14)" fill="#699dee"/>
                  <path id="Path_81540" data-name="Path 81540" d="M1852.969,659.21h32.544a1,1,0,0,0,.916-.733l.068-.275a.555.555,0,0,0-.55-.734H1853.4a1,1,0,0,0-.916.734l-.069.275A.555.555,0,0,0,1852.969,659.21Z" transform="translate(-1847.575 -657.468)" fill="#699dee"/>
                  <path id="Path_81541" data-name="Path 81541" d="M1848.267,678.067h32.544a1,1,0,0,0,.916-.733l.068-.275a.555.555,0,0,0-.55-.733H1848.7a1,1,0,0,0-.916.733l-.069.275A.555.555,0,0,0,1848.267,678.067Z" transform="translate(-1843.879 -672.291)" fill="#699dee"/>
                  <path id="Path_81542" data-name="Path 81542" d="M1843.851,695.781h32.544a1.006,1.006,0,0,0,.917-.733l.068-.275a.555.555,0,0,0-.55-.733h-32.544a1,1,0,0,0-.916.733l-.068.275A.555.555,0,0,0,1843.851,695.781Z" transform="translate(-1840.408 -686.216)" fill="#699dee"/>
                  <path id="Path_81543" data-name="Path 81543" d="M1830.433,749.6h32.544a1,1,0,0,0,.916-.733l.069-.275a.555.555,0,0,0-.551-.734h-32.544a1.006,1.006,0,0,0-.917.734l-.068.275A.555.555,0,0,0,1830.433,749.6Z" transform="translate(-1829.86 -728.519)" fill="#699dee"/>
                  <path id="Path_81544" data-name="Path 81544" d="M1834.85,731.882h32.544a1,1,0,0,0,.916-.734l.069-.275a.556.556,0,0,0-.551-.734h-32.544a1,1,0,0,0-.916.734l-.069.275A.556.556,0,0,0,1834.85,731.882Z" transform="translate(-1833.332 -714.594)" fill="#699dee"/>
                </g>
                <path id="Path_81545" data-name="Path 81545" d="M1806.911,860.182h7.9a1.194,1.194,0,0,0,1.088-.871h0a.66.66,0,0,0-.654-.871h-7.9a1.193,1.193,0,0,0-1.088.871h0A.66.66,0,0,0,1806.911,860.182Z" transform="translate(-1806.231 -815.448)" fill="#699dee"/>
                <path id="Path_81546" data-name="Path 81546" d="M1920.107,860.182h7.9a1.193,1.193,0,0,0,1.088-.871h0a.659.659,0,0,0-.653-.871h-7.9a1.193,1.193,0,0,0-1.088.871h0A.659.659,0,0,0,1920.107,860.182Z" transform="translate(-1895.212 -815.448)" fill="#699dee"/>
              </g>
              <g id="Group_118054" data-name="Group 118054" transform="translate(0 48.46)">
                <path id="Path_81547" data-name="Path 81547" d="M1795.477,889.648H1783.95a.9.9,0,0,1-.731-.332.955.955,0,0,1-.149-.836l.831-3.333a1.568,1.568,0,0,1,1.433-1.146h11.527a.9.9,0,0,1,.731.332.953.953,0,0,1,.148.836l-.831,3.333A1.568,1.568,0,0,1,1795.477,889.648Zm-10.142-5.555a1.471,1.471,0,0,0-1.343,1.076l-.831,3.333a.864.864,0,0,0,.132.757.81.81,0,0,0,.658.3h11.527a1.472,1.472,0,0,0,1.343-1.076l.831-3.333a.863.863,0,0,0-.131-.757.808.808,0,0,0-.658-.3Z" transform="translate(-1783.036 -884)" fill="#476ba7"/>
              </g>
              <g id="Group_118055" data-name="Group 118055" transform="translate(24.256 48.46)">
                <path id="Path_81548" data-name="Path 81548" d="M1908.865,889.648h-11.527a.9.9,0,0,1-.731-.332.954.954,0,0,1-.148-.836l.831-3.333a1.568,1.568,0,0,1,1.433-1.146h11.527a.9.9,0,0,1,.731.332.954.954,0,0,1,.148.836l-.831,3.333A1.569,1.569,0,0,1,1908.865,889.648Zm-10.142-5.555a1.471,1.471,0,0,0-1.343,1.076l-.831,3.333a.863.863,0,0,0,.131.757.81.81,0,0,0,.658.3h11.527a1.471,1.471,0,0,0,1.343-1.076l.831-3.333a.864.864,0,0,0-.131-.757.81.81,0,0,0-.658-.3Z" transform="translate(-1896.424 -884)" fill="#476ba7"/>
              </g>
              <path id="Path_81549" data-name="Path 81549" d="M1923.215,881.863q-2.626,1.085-5.214,2.372.1-.29.184-.58c.043-.155-.166-.259-.3-.088a2.634,2.634,0,0,1-.183.217c.043-.139-.121-.217-.261-.115l-.027.021c.068-.187-.222-.215-.331-.034l-.162.27a1.136,1.136,0,0,1-.522.348.882.882,0,0,1-.077-.29.129.129,0,0,0-.135-.123c0-.095-.089-.151-.216-.095a1.182,1.182,0,0,0-.4.293c-.086-.161-.364-.046-.512.109l.013-.026c.07-.15-.06-.32-.235-.169a2.121,2.121,0,0,0-.645.944,3.592,3.592,0,0,1-.33.325c-.057.049-.324.3-.385.275s-.028-.174,0-.282l.028-.04c.222-.309,1.293-1.765.539-1.752a.269.269,0,0,0-.21.128,5.012,5.012,0,0,0-.618,1.318c-.025.086-.059.2-.087.312l-.066.088a3.433,3.433,0,0,1-1.2,1.154,5.36,5.36,0,0,1,.5-1.989q.152-.418.316-.835a.236.236,0,0,0,.1-.054,1.326,1.326,0,0,0,.5-1.537c-.068-.127-.277-.012-.338.123q-.542,1.216-.983,2.44a4.69,4.69,0,0,0-.446,2.155c.011.07.094.1.17.08a2.82,2.82,0,0,0,1.425-1.1.231.231,0,0,0,.152.134c.258.077.61-.21.863-.45a1.033,1.033,0,0,0,.045.243c.028.085.115.1.218.063a2,2,0,0,0,.652-.436,1.4,1.4,0,0,0,.653-.523,3.448,3.448,0,0,0,.321-.321.491.491,0,0,0,.09.164c.094.108.332.01.483-.059a1.605,1.605,0,0,0,.4-.262.8.8,0,0,0,.274-.075.224.224,0,0,0,.065.068.284.284,0,0,0,.317-.03q-.037.105-.077.211-.377.19-.753.384c-.165.086-.2.339-.019.325l.691-.053a.275.275,0,0,0,.231-.174q.061-.138.117-.277,2.7-1.353,5.449-2.49C1923.526,882.067,1923.448,881.767,1923.215,881.863Zm-8.022,2.649a1.125,1.125,0,0,1-.057.144c-.016.033-.033.065-.051.1A1.214,1.214,0,0,1,1915.193,884.512Zm-.507.432a.43.43,0,0,0-.006.262,1.6,1.6,0,0,1-.173.114.988.988,0,0,1,.02-.322c.08-.094.155-.191.224-.29A1.757,1.757,0,0,0,1914.686,884.944Z" transform="translate(-1884.022 -833.846)" fill="#365da2"/>
              <g id="Group_118056" data-name="Group 118056" transform="translate(2.922 46.867)">
                <path id="Path_81550" data-name="Path 81550" d="M1800.747,876.633c-.62,1.152-.968,2.334-1.471,3.5a9.373,9.373,0,0,1-.91,1.672c-.261.373-.831,1.185-1.314,1.01-.12-.044-.154-.147-.115-.288.009-.031.019-.063.03-.095a.267.267,0,0,0,.25-.029.9.9,0,0,0,.356-.4c.072-.157.061-.32-.065-.39a.356.356,0,0,0-.393.11,1.312,1.312,0,0,0-.252.446,1.377,1.377,0,0,0-.17.56c.018.266.3.36.585.3a1.791,1.791,0,0,0,.873-.644,7.5,7.5,0,0,0,.715-1.008,13.95,13.95,0,0,0,1-2.17,21.286,21.286,0,0,1,1.073-2.52C1801.009,876.555,1800.821,876.5,1800.747,876.633Zm-3.356,5.231c.021.081-.058.188-.122.263a.424.424,0,0,1-.073.072.24.24,0,0,1-.052.031l-.017,0a.069.069,0,0,0-.065-.036c.027-.061.055-.121.083-.179C1797.185,881.934,1797.348,881.693,1797.392,881.864Z" transform="translate(-1796.693 -876.556)" fill="#365da2"/>
                <path id="Path_81551" data-name="Path 81551" d="M1813.982,892.629a1.383,1.383,0,0,1-.394.163.384.384,0,0,1-.1,0,.62.62,0,0,0,.194-.305c.023-.167-.161-.206-.317-.12a.478.478,0,0,0-.238.36.245.245,0,0,0,.019.119.872.872,0,0,1-.508.2,1.846,1.846,0,0,0,.467-.462.1.1,0,0,0,.007-.1.307.307,0,0,0-.393-.03.789.789,0,0,0-.338.407.577.577,0,0,0-.043.149,1.167,1.167,0,0,1-.5.113v0c.052-.049.1-.1.155-.148.076-.076.031-.153-.04-.162a.322.322,0,0,0-.321.251,4.807,4.807,0,0,1-.791.573c-.07.04-.165.122-.212.07a2.433,2.433,0,0,0,.321-.284c.191-.2.379-.559.154-.683a.131.131,0,0,0-.16.039l-.3.394a1.731,1.731,0,0,0-.229.354.461.461,0,0,0-.032.124,2.161,2.161,0,0,1-.314.162l-.027.011.175-.14a.723.723,0,0,0,.321-.475.532.532,0,0,0-.207-.4c-.028-.028-.095-.015-.136.017a2.136,2.136,0,0,0-.7.9.352.352,0,0,0-.01.3q-.423.323-.856.63c-.03.022-.1.09-.135.079s-.016-.075-.016-.1a2.011,2.011,0,0,1,.014-.242,2.4,2.4,0,0,1,.132-.541,2.94,2.94,0,0,1,.22-.468.115.115,0,0,0,.121-.022.736.736,0,0,0,.3-.625c-.007-.076-.129-.065-.186,0a3.036,3.036,0,0,0-.829,2.023c.007.145.072.267.266.186a1.4,1.4,0,0,0,.252-.161q.158-.113.315-.227.295-.216.586-.438a1,1,0,0,0,.347-.078,2.369,2.369,0,0,0,.4-.191.2.2,0,0,0,.21.1,1.111,1.111,0,0,0,.351-.177c.117-.071.232-.145.344-.225s.215-.16.317-.247c.024.033.065.043.135.044a1.19,1.19,0,0,0,.3-.032,1.591,1.591,0,0,0,.319-.113.2.2,0,0,0,.052.036.576.576,0,0,0,.432-.027,1.637,1.637,0,0,0,.406-.229.4.4,0,0,0,.119.031,1.186,1.186,0,0,0,.63-.194C1814.171,892.74,1814.124,892.554,1813.982,892.629Zm-4.218.977a1.854,1.854,0,0,1,.449-.557.251.251,0,0,1,.043.351,1.344,1.344,0,0,1-.232.205l-.267.211-.071.055C1809.656,893.808,1809.731,893.671,1809.765,893.606Zm1.211-.568a.89.89,0,0,1-.232.332l-.044.041C1810.781,893.284,1810.879,893.16,1810.976,893.037Zm1.884-.427a1.408,1.408,0,0,1-.275.258C1812.641,892.745,1812.772,892.6,1812.859,892.61Zm.517-.006c.013-.022.075-.09.065-.043a.374.374,0,0,1-.088.108A.168.168,0,0,1,1813.376,892.6Z" transform="translate(-1805.776 -888.953)" fill="#365da2"/>
              </g>
            </g>
          </g>
          <g id="Group_118065" data-name="Group 118065" transform="translate(186.655 89.881)">
            <path id="Path_81552" data-name="Path 81552" d="M1664.142,1038.44h49.127l16.465-66.04h-49.127Z" transform="translate(-1664.142 -972.4)" fill="#fff"/>
            <g id="Group_118064" data-name="Group 118064" transform="translate(6.938 5.942)">
              <g id="Group_118060" data-name="Group 118060" transform="translate(4.962)" opacity="0.5">
                <g id="Group_118059" data-name="Group 118059" transform="translate(6.034)">
                  <path id="Path_81553" data-name="Path 81553" d="M1757.549,1056.2h32.544a1,1,0,0,0,.916-.733l.069-.275a.556.556,0,0,0-.551-.733h-32.544a1,1,0,0,0-.916.733l-.069.275A.556.556,0,0,0,1757.549,1056.2Z" transform="translate(-1755.05 -1042.849)" fill="#699dee"/>
                  <path id="Path_81554" data-name="Path 81554" d="M1771.084,1001.918h32.544a1,1,0,0,0,.916-.733l.068-.275a.555.555,0,0,0-.551-.733h-32.544a1,1,0,0,0-.917.733l-.068.275A.555.555,0,0,0,1771.084,1001.918Z" transform="translate(-1765.69 -1000.177)" fill="#699dee"/>
                  <path id="Path_81555" data-name="Path 81555" d="M1766.381,1020.775h32.544a1.006,1.006,0,0,0,.916-.734l.068-.275a.555.555,0,0,0-.551-.733h-32.544a1,1,0,0,0-.916.733l-.069.275A.556.556,0,0,0,1766.381,1020.775Z" transform="translate(-1761.994 -1014.999)" fill="#699dee"/>
                  <path id="Path_81556" data-name="Path 81556" d="M1761.965,1038.489h32.544a1.006,1.006,0,0,0,.916-.733l.068-.275a.555.555,0,0,0-.55-.733H1762.4a1.006,1.006,0,0,0-.917.733l-.068.275A.556.556,0,0,0,1761.965,1038.489Z" transform="translate(-1758.522 -1028.924)" fill="#699dee"/>
                  <path id="Path_81557" data-name="Path 81557" d="M1748.548,1092.3h32.544a1,1,0,0,0,.916-.733l.069-.275a.555.555,0,0,0-.551-.733h-32.544a1,1,0,0,0-.917.733l-.068.275A.555.555,0,0,0,1748.548,1092.3Z" transform="translate(-1747.975 -1071.228)" fill="#699dee"/>
                  <path id="Path_81558" data-name="Path 81558" d="M1752.964,1074.59h32.544a1,1,0,0,0,.916-.733l.068-.275a.555.555,0,0,0-.55-.733H1753.4a1,1,0,0,0-.916.733l-.069.275A.555.555,0,0,0,1752.964,1074.59Z" transform="translate(-1751.447 -1057.303)" fill="#699dee"/>
                </g>
                <path id="Path_81559" data-name="Path 81559" d="M1720.449,1200.053h7.9a1.194,1.194,0,0,0,1.088-.871h0a.66.66,0,0,0-.654-.871h-7.9a1.194,1.194,0,0,0-1.088.871h0A.66.66,0,0,0,1720.449,1200.053Z" transform="translate(-1719.769 -1155.926)" fill="#699dee"/>
                <path id="Path_81560" data-name="Path 81560" d="M1833.645,1200.053h7.9a1.193,1.193,0,0,0,1.088-.871h0a.659.659,0,0,0-.654-.871h-7.9a1.193,1.193,0,0,0-1.088.871h0A.66.66,0,0,0,1833.645,1200.053Z" transform="translate(-1808.75 -1155.926)" fill="#699dee"/>
              </g>
              <g id="Group_118061" data-name="Group 118061" transform="translate(0 47.853)">
                <path id="Path_81561" data-name="Path 81561" d="M1709.015,1229.519h-11.527a.9.9,0,0,1-.731-.333.955.955,0,0,1-.149-.836l.831-3.333a1.568,1.568,0,0,1,1.433-1.146H1710.4a.9.9,0,0,1,.731.332.953.953,0,0,1,.148.836l-.831,3.333A1.569,1.569,0,0,1,1709.015,1229.519Zm-10.142-5.555a1.471,1.471,0,0,0-1.343,1.076l-.831,3.333a.865.865,0,0,0,.132.757.811.811,0,0,0,.658.3h11.527a1.472,1.472,0,0,0,1.343-1.076l.831-3.333a.863.863,0,0,0-.131-.757.81.81,0,0,0-.658-.3Z" transform="translate(-1696.573 -1223.871)" fill="#476ba7"/>
              </g>
              <g id="Group_118062" data-name="Group 118062" transform="translate(24.256 47.853)">
                <path id="Path_81562" data-name="Path 81562" d="M1822.4,1229.519h-11.527a.9.9,0,0,1-.731-.333.954.954,0,0,1-.148-.836l.831-3.333a1.569,1.569,0,0,1,1.433-1.146h11.527a.9.9,0,0,1,.731.332.953.953,0,0,1,.148.836l-.831,3.333A1.57,1.57,0,0,1,1822.4,1229.519Zm-10.142-5.555a1.471,1.471,0,0,0-1.343,1.076l-.831,3.333a.865.865,0,0,0,.131.757.811.811,0,0,0,.658.3H1822.4a1.471,1.471,0,0,0,1.343-1.076l.831-3.333a.863.863,0,0,0-.131-.757.81.81,0,0,0-.658-.3Z" transform="translate(-1809.961 -1223.871)" fill="#476ba7"/>
              </g>
              <path id="Path_81563" data-name="Path 81563" d="M1836.753,1221.735q-2.626,1.085-5.214,2.372.1-.289.184-.58c.044-.156-.166-.259-.3-.088a2.642,2.642,0,0,1-.183.217c.043-.139-.121-.217-.261-.115l-.027.021c.068-.187-.223-.215-.331-.034l-.162.27a1.134,1.134,0,0,1-.522.348.886.886,0,0,1-.077-.29.129.129,0,0,0-.135-.123c0-.1-.089-.151-.216-.095a1.185,1.185,0,0,0-.4.292c-.086-.161-.363-.046-.512.109l.012-.026c.07-.15-.06-.32-.235-.169a2.12,2.12,0,0,0-.645.944,3.622,3.622,0,0,1-.33.325c-.057.049-.324.3-.386.275s-.027-.174,0-.282l.028-.04c.222-.309,1.293-1.765.539-1.752a.27.27,0,0,0-.21.128,5.026,5.026,0,0,0-.618,1.317c-.025.086-.059.2-.087.312l-.067.088a3.434,3.434,0,0,1-1.2,1.153,5.359,5.359,0,0,1,.5-1.989q.152-.418.316-.835a.234.234,0,0,0,.1-.054,1.326,1.326,0,0,0,.5-1.537c-.068-.127-.278-.012-.338.123q-.542,1.216-.983,2.441a4.689,4.689,0,0,0-.446,2.155c.012.07.094.1.171.08a2.817,2.817,0,0,0,1.425-1.1.23.23,0,0,0,.152.134c.257.077.61-.21.863-.45a1.012,1.012,0,0,0,.045.244c.027.085.115.1.218.063a2.005,2.005,0,0,0,.652-.436,1.407,1.407,0,0,0,.653-.523,3.5,3.5,0,0,0,.322-.321.49.49,0,0,0,.09.164c.094.108.332.01.484-.059a1.616,1.616,0,0,0,.4-.262.8.8,0,0,0,.274-.075.221.221,0,0,0,.065.068.284.284,0,0,0,.317-.03c-.025.07-.05.141-.077.211q-.376.19-.753.384c-.165.086-.2.339-.018.324l.69-.052a.275.275,0,0,0,.232-.174q.061-.138.117-.276,2.7-1.353,5.45-2.49C1837.064,1221.939,1836.986,1221.638,1836.753,1221.735Zm-8.022,2.649a1.124,1.124,0,0,1-.057.144c-.016.033-.033.065-.051.1A1.212,1.212,0,0,1,1828.731,1224.384Zm-.507.432a.429.429,0,0,0-.006.262,1.585,1.585,0,0,1-.172.114.99.99,0,0,1,.02-.322c.08-.094.155-.191.224-.291A1.746,1.746,0,0,0,1828.224,1224.815Z" transform="translate(-1797.559 -1174.324)" fill="#365da2"/>
              <g id="Group_118063" data-name="Group 118063" transform="translate(2.922 46.26)">
                <path id="Path_81564" data-name="Path 81564" d="M1714.285,1216.5c-.62,1.152-.968,2.334-1.471,3.5a9.364,9.364,0,0,1-.91,1.672c-.261.373-.832,1.185-1.314,1.009-.12-.044-.154-.147-.115-.287.009-.031.019-.063.031-.1a.266.266,0,0,0,.25-.029.9.9,0,0,0,.356-.4c.072-.157.061-.32-.065-.39a.355.355,0,0,0-.393.111,1.316,1.316,0,0,0-.252.446,1.376,1.376,0,0,0-.17.56c.017.266.3.36.585.3a1.791,1.791,0,0,0,.873-.644,7.467,7.467,0,0,0,.715-1.008,13.966,13.966,0,0,0,1-2.17,21.244,21.244,0,0,1,1.073-2.52C1714.547,1216.427,1714.358,1216.369,1714.285,1216.5Zm-3.355,5.231c.021.081-.058.188-.122.263a.437.437,0,0,1-.073.072.253.253,0,0,1-.052.031l-.016,0a.069.069,0,0,0-.065-.036c.027-.061.055-.121.083-.179C1710.724,1221.805,1710.886,1221.564,1710.93,1221.735Z" transform="translate(-1710.231 -1216.427)" fill="#365da2"/>
                <path id="Path_81565" data-name="Path 81565" d="M1727.52,1232.5a1.382,1.382,0,0,1-.393.163.386.386,0,0,1-.1,0,.622.622,0,0,0,.194-.305c.023-.167-.161-.205-.317-.12a.477.477,0,0,0-.238.36.245.245,0,0,0,.019.119.872.872,0,0,1-.508.2,1.845,1.845,0,0,0,.468-.462.1.1,0,0,0,.007-.105.308.308,0,0,0-.394-.03.788.788,0,0,0-.338.407.576.576,0,0,0-.043.149,1.166,1.166,0,0,1-.5.113v0c.052-.048.1-.1.154-.148.075-.075.031-.153-.04-.162a.322.322,0,0,0-.321.251,4.782,4.782,0,0,1-.792.573c-.07.04-.165.122-.212.07a2.5,2.5,0,0,0,.321-.284c.19-.2.379-.559.153-.684a.132.132,0,0,0-.16.039l-.3.394a1.722,1.722,0,0,0-.228.354.465.465,0,0,0-.032.124,2.148,2.148,0,0,1-.314.162l-.027.011.175-.141a.722.722,0,0,0,.321-.475.532.532,0,0,0-.207-.4c-.028-.028-.095-.014-.136.017a2.139,2.139,0,0,0-.7.9.353.353,0,0,0-.01.3q-.423.322-.856.63c-.031.022-.1.09-.135.08s-.016-.075-.016-.1a2.037,2.037,0,0,1,.014-.242,2.38,2.38,0,0,1,.132-.541,2.934,2.934,0,0,1,.22-.468.115.115,0,0,0,.121-.022.737.737,0,0,0,.3-.625c-.007-.076-.129-.065-.186,0a3.035,3.035,0,0,0-.829,2.023c.007.145.072.267.266.186a1.412,1.412,0,0,0,.252-.161l.315-.227q.295-.216.586-.438a1,1,0,0,0,.347-.078,2.372,2.372,0,0,0,.4-.191.2.2,0,0,0,.21.1,1.11,1.11,0,0,0,.351-.177c.117-.071.232-.145.344-.225s.215-.16.317-.247c.024.033.065.043.135.044a1.2,1.2,0,0,0,.3-.032,1.57,1.57,0,0,0,.319-.113.2.2,0,0,0,.052.036.577.577,0,0,0,.432-.027,1.634,1.634,0,0,0,.406-.229.389.389,0,0,0,.119.032,1.188,1.188,0,0,0,.63-.194C1727.709,1232.612,1727.662,1232.426,1727.52,1232.5Zm-4.217.977a1.856,1.856,0,0,1,.449-.557.251.251,0,0,1,.043.351,1.378,1.378,0,0,1-.232.205l-.267.211-.07.054C1723.194,1233.68,1723.269,1233.543,1723.3,1233.478Zm1.211-.568a.889.889,0,0,1-.232.332l-.044.041C1724.319,1233.156,1724.417,1233.031,1724.514,1232.909Zm1.884-.427a1.424,1.424,0,0,1-.275.258C1726.179,1232.617,1726.31,1232.476,1726.4,1232.482Zm.517-.006c.013-.022.075-.09.064-.043a.367.367,0,0,1-.088.108A.165.165,0,0,1,1726.915,1232.476Z" transform="translate(-1719.315 -1228.824)" fill="#365da2"/>
              </g>
            </g>
          </g>
        </g>
        <g id="man_2" data-name="man 2" transform="translate(57.319 86.286)">
          <path id="Path_81566" data-name="Path 81566" d="M1037.389,1675.9s-.606,10.031,1.221,10.177c.243.019,9.269.019,9.269.019l11.521-.072a3.937,3.937,0,0,0-3.443-3.611c-3.368-.63-9.284-2.942-10.285-8.089S1037.389,1675.9,1037.389,1675.9Z" transform="translate(-923.342 -1498.022)" fill="#163560"/>
          <path id="Path_81567" data-name="Path 81567" d="M1139.94,1675.9s-.606,10.031,1.221,10.177c.243.019,9.268.019,9.268.019l11.521-.072a3.937,3.937,0,0,0-3.443-3.611c-3.368-.63-9.284-2.942-10.285-8.089S1139.94,1675.9,1139.94,1675.9Z" transform="translate(-1003.956 -1498.022)" fill="#163560"/>
          <path id="Path_81568" data-name="Path 81568" d="M830.745,1104.126l-10.1,3.481s-6.425-13.079-7.99-14.855c-1.785-2.026-3.068-17.618-3.876-31.722-.705-12.334-1.049-23.53-1.049-23.53s3.436.781,5.68,6.584c3.846,9.947,3.818,29.368,5.958,39.383C820.6,1089.233,828.665,1103.307,830.745,1104.126Z" transform="translate(-742.89 -998.957)" fill="#699dee"/>
          <path id="Path_81569" data-name="Path 81569" d="M817.968,1194.352c-3.849-4.478-6.425-13.079-7.99-14.855-1.785-2.026-10.232-13.541-2.34-31.646,3.869,11.451.641,17.69,1.857,24.45C810.7,1179,817.617,1189.873,817.968,1194.352Z" transform="translate(-740.211 -1085.7)" fill="#3b76ca"/>
          <path id="Path_81570" data-name="Path 81570" d="M708.454,1584.878a4.963,4.963,0,0,1-3.181.838c-2.535,0-3.181-.838-3.181-.838v-35.6h6.362Z" transform="translate(-659.847 -1401.256)" fill="#d86713"/>
          <path id="Path_81571" data-name="Path 81571" d="M588.225,1293.459c0,.025-.007.053-.011.08a33.3,33.3,0,0,1-.913,4.41,26.186,26.186,0,0,1-2.571,6.253c-3.445,5.811-9.979,12.278-25.647,14.389-.759.1-1.542.2-2.346.277q-2.193.224-4.613.335c-.1,0-.205.009-.308.011s-.205.009-.31.011a75.966,75.966,0,0,1-15.344-2.3c-11.673-2.769-19.278-8.471-24.088-15.407a0,0,0,0,1,0,0q-.613-.884-1.167-1.792a38.3,38.3,0,0,1-2.5-4.869,51.005,51.005,0,0,1-3.789-19.2,63.4,63.4,0,0,1,2.029-15.063,27.356,27.356,0,0,1,3.711-8.262,22.349,22.349,0,0,1,1.419-1.885,20.98,20.98,0,0,1,5.757-4.849c5.577-3.178,23.918-6.344,39.454,1.854C585.582,1262.536,589.887,1281.177,588.225,1293.459Z" transform="translate(-504.614 -1159.899)" fill="#a8d29f"/>
          <path id="Path_81572" data-name="Path 81572" d="M606.535,1500.331c-4.561,5.308-8.668,10.747-24.336,12.49-.759.083-1.542.161-2.346.226q-2.193.187-4.613.277c-.1,0-.205.009-.308.009s-.205.009-.31.011a75.975,75.975,0,0,1-15.344-2.3c-11.673-2.769-19.278-8.471-24.088-15.407a0,0,0,0,1,0,0q-.613-.884-1.167-1.792c8.857-2.113,27.774-5.818,46.569-4.3,10.2.821,20.771,1.729,29.827,2.528C610.724,1492.094,608.039,1498.582,606.535,1500.331Z" transform="translate(-527.731 -1354.017)" fill="#82b378"/>
          <path id="Path_81573" data-name="Path 81573" d="M612.3,1045.991q.219-.9.466-1.774c2.24-7.92,5.889-13.662,11.622-14.6.72,1.959,7.739,5.213,13.881,4.9a4.026,4.026,0,0,0,1.69-.958c4.851-.685,7.158-3.284,6.931-3.635.2.016,5.093,1.386,5.093,1.386,4.243,18.556,4.752,28.866-.355,55.328-1.864,9.665.986,14.916.355,15.549-1.1,1.107-13.328,1.426-23.156,1.806-1.179.044-2.344.086-3.477.123-7.184.234-13.1.318-13.1.318-.488-.608-1.386-6.216-2-14.113C609.272,1077.705,609.015,1059.261,612.3,1045.991Z" transform="translate(-587.144 -992.758)" fill="#699dee"/>
          <path id="Path_81574" data-name="Path 81574" d="M694.515,984.311l5.842,4.84,8.9-1.374c-.084-.857-.527-4.57-.908-7.739-.313-2.588-.585-4.81-.585-4.81l-10.628-4.253-.321-.127c0,.053.007.107.009.16.03.425.049.84.058,1.249A26.359,26.359,0,0,1,694.515,984.311Z" transform="translate(-653.891 -946.562)" fill="#e49963"/>
          <path id="Path_81575" data-name="Path 81575" d="M676.578,1395.821c29.743,2.136,39,1.75,40.046,3.18,6.566,9,7.23,10.549,20.548,28.578,2.542,3.44,5.542,7.479,9.134,12.284h13.906s-15-28.627-27-48.021c-4.733-7.655-9-13.871-11.691-16.323-9.3-8.472-46.328-8.275-46.328-8.275s-32.155-.778-34.685,3.985C639.961,1372.265,654.184,1394.21,676.578,1395.821Z" transform="translate(-611.427 -1258.125)" fill="#1c468a"/>
          <path id="Path_81576" data-name="Path 81576" d="M676.578,1395.821c29.743,2.136,39,1.75,40.046,3.18,6.566,9,7.23,10.549,20.548,28.578l-3.958-35.737c-4.733-7.655-9-13.871-11.691-16.323-9.3-8.472-46.328-8.275-46.328-8.275s-32.155-.778-34.685,3.985C639.961,1372.265,654.184,1394.21,676.578,1395.821Z" transform="translate(-611.427 -1258.125)" fill="#163560"/>
          <path id="Path_81577" data-name="Path 81577" d="M728.078,1050.75l5.852-.621a.867.867,0,0,1,.592,1.083c-.141.922-2.07,3.418-2.8,3.542S726.492,1052.446,728.078,1050.75Z" transform="translate(-680.011 -1008.883)" fill="#a8d29f"/>
          <path id="Path_81578" data-name="Path 81578" d="M625.813,1374.841s.992,18.01,23.387,19.62c29.742,2.137,35.879,1.431,37.824,3.25,9.561,8.937,3.242,10.832,25.655,40.824h14.078s-17.183-56.917-24.964-63.726c-9.451-8.271-48.058-8.894-48.058-8.894s-25.732-1.982-28.262,2.781C624.923,1369.731,625.813,1374.841,625.813,1374.841Z" transform="translate(-599.478 -1256.795)" fill="#1c468a"/>
          <g id="Group_118067" data-name="Group 118067" transform="translate(0.001 90.543)">
            <path id="Path_81579" data-name="Path 81579" d="M559.087,1348.728a31.8,31.8,0,0,1-4.769.607c-.681.031-1.372.042-2.08.036q-.09,0-.181,0l-.547-.011a75.989,75.989,0,0,1-15.344-2.3c-15.249-3.617-23.555-12.24-27.759-22.07a51,51,0,0,1-3.789-19.2,63.408,63.408,0,0,1,2.029-15.063,27.373,27.373,0,0,1,3.711-8.261q.5-.737,1.053-1.435c.118-.152.241-.3.366-.451C522.284,1291.566,554.033,1326.5,559.087,1348.728Z" transform="translate(-504.619 -1280.578)" fill="#82b378"/>
            <path id="Path_81580" data-name="Path 81580" d="M558.291,1350.385a31.824,31.824,0,0,1-4.769.607c-.424.02-.85.031-1.283.036q-.09,0-.181,0l-.547-.011a75.982,75.982,0,0,1-15.344-2.3c-15.249-3.617-23.555-12.24-27.759-22.07a51,51,0,0,1-3.789-19.2,63.406,63.406,0,0,1,2.029-15.063,27.372,27.372,0,0,1,3.711-8.261q.5-.737,1.053-1.435C522.327,1294.149,553.3,1328.45,558.291,1350.385Z" transform="translate(-504.619 -1282.234)" fill="#a8d29f"/>
          </g>
          <g id="Group_118068" data-name="Group 118068" transform="translate(36.814 35.07)">
            <path id="Path_81581" data-name="Path 81581" d="M747.176,1022.334s-.974,4.349-3.543,6.453l3.961,5.153s4.8-5.681,4.658-9.747A32.071,32.071,0,0,0,747.176,1022.334Z" transform="translate(-729.316 -1022.104)" fill="#3b76ca"/>
            <path id="Path_81582" data-name="Path 81582" d="M748.029,1022.334s-.742,4.093-3.31,6.2l3.806,4.686s4.177-4.856,4.581-9.025A32.07,32.07,0,0,0,748.029,1022.334Z" transform="translate(-730.17 -1022.104)" fill="#699dee"/>
            <path id="Path_81583" data-name="Path 81583" d="M681.235,1022.334s6.059,5.74,10.022,6.2l-2.712,6.77s-11.8-6.992-11.837-11.18C676.708,1024.121,679.956,1022.371,681.235,1022.334Z" transform="translate(-676.708 -1022.104)" fill="#3b76ca"/>
            <path id="Path_81584" data-name="Path 81584" d="M683.257,1021.26s5.626,5.97,9.589,6.427l-2.2,6.239s-11.885-6.691-11.92-10.879C678.73,1023.047,681.978,1021.3,683.257,1021.26Z" transform="translate(-678.297 -1021.26)" fill="#699dee"/>
          </g>
          <path id="Path_81585" data-name="Path 81585" d="M612.37,1184.82c.613,7.9.448,12.024,2.885,14.345,0,0,4.933,1.857,12.214-.55a10.723,10.723,0,0,0,5.387-5.408c4.8-11.915-4.332-21.818-4.8-29.71s-7.7-13.656-7.7-13.656S611.388,1172.212,612.37,1184.82Z" transform="translate(-589.26 -1087.264)" fill="#3b76ca"/>
          <path id="Path_81586" data-name="Path 81586" d="M734.472,1067.555s-1.109,10.47-1.307,13.973c-.555,9.854-.758,39.473-.758,39.473a6.727,6.727,0,0,0,1.434,4.648,26.5,26.5,0,0,0,3.528,3.474,13.056,13.056,0,0,0,3.537-6.379c.668-2.77-.936-26.026-2.554-41.518a138.97,138.97,0,0,0-2.157-13.883S734.873,1067.113,734.472,1067.555Z" transform="translate(-683.663 -1022.368)" fill="#a8d29f"/>
          <path id="Path_81587" data-name="Path 81587" d="M548.67,1689.689h69.584c-3.313-7.242-17.63-12.69-34.792-12.69S551.982,1682.447,548.67,1689.689Z" transform="translate(-539.246 -1501.653)" fill="#f1a34f"/>
          <path id="Path_81588" data-name="Path 81588" d="M706.915,1320.739a44.064,44.064,0,0,1,6.267,2.089c1.547.851,4.652,4.933,3.956,5.571-3.494,3.2-4.033-.348-8.327-1.509-.78-.211-4.372-4.217-4.372-4.217Z" transform="translate(-661.692 -1221.604)" fill="#e49963"/>
          <path id="Path_81589" data-name="Path 81589" d="M686.585,1276.88l7.086-24.5h40.491l-7.311,25.494H673.7v-.993Z" transform="translate(-637.526 -1167.868)" fill="#c65447"/>
          <path id="Path_81590" data-name="Path 81590" d="M849.815,1304.07a1.181,1.181,0,0,0-1.157-1.623,2.325,2.325,0,0,0-2.088,1.623,1.181,1.181,0,0,0,1.157,1.623A2.325,2.325,0,0,0,849.815,1304.07Z" transform="translate(-773.367 -1207.226)" fill="#f1a34f"/>
          <path id="Path_81591" data-name="Path 81591" d="M599.865,1029.614s-8.04,1.308-12.064,5.486-10.832,38.377-9.13,43.174,15.32,14.546,25.069,18.569c0,0,4.8-2.167,5.107-5.88,0,0-16.558-13.927-17.332-17.641S599.865,1029.614,599.865,1029.614Z" transform="translate(-562.618 -992.757)" fill="#699dee"/>
          <path id="Path_81592" data-name="Path 81592" d="M705.3,971.476c.03.425.049.84.058,1.249,2.057,2.217,6.892,6.943,11.467,7.781-.313-2.588-.585-4.81-.585-4.81l-10.628-4.252Z" transform="translate(-662.369 -947.031)" fill="#d68d5d"/>
          <path id="Path_81593" data-name="Path 81593" d="M712.663,916.717s-12.746.583-12.986-7.361-2.048-13.217,6.08-13.925,9.8,2.276,10.527,4.907S715.973,916.361,712.663,916.717Z" transform="translate(-657.684 -887.195)" fill="#e49963"/>
          <path id="Path_81594" data-name="Path 81594" d="M688.341,879.481s.953-10.6,12.307-10.219,6.443-10.359-3.314-11.942c0,0,1.019,3.784-5.119,4.382C679.332,862.957,687.2,877.8,688.341,879.481Z" transform="translate(-646.349 -857.32)" fill="#1c468a"/>
        </g>
        <g id="Group_118070" data-name="Group 118070" transform="translate(360.748 57.899)">
          <path id="Path_81595" data-name="Path 81595" d="M2267.334,1618.151l-3.425,14.424-5.13-.029-.188-14.395Z" transform="translate(-2186.81 -1427.007)" fill="#ffb27d"/>
          <path id="Path_81596" data-name="Path 81596" d="M2047.994,1614.048l-9.744,13.809-3.8-4.876,5.865-10.831Z" transform="translate(-2010.618 -1422.289)" fill="#ffb27d"/>
          <path id="Path_81597" data-name="Path 81597" d="M2195.749,726.228a9.935,9.935,0,0,1,5.377-1.029,2.514,2.514,0,0,0-1.134-.538,8.333,8.333,0,0,1,2.975.776c12.8-4.934,14.816,13.918,14.547,18.3s4.3,5.81,10.964,9.26c12.71,6.584,13.826,15.4,13.826,15.4-.1.058-.2.125-.312.2-.63-1.068-1.928-3.075-3.023-3.377a45.336,45.336,0,0,1,1.761,4.289c-3.75,2.852-10.764,9.172-15.653,13.653a7.171,7.171,0,0,0-.333-2.776l-.6,3.637c-2.616,2.4-4.42,4.1-4.42,4.1.323-3.539-16.007-22.217-24.527-27.811-2.074-3.053-2.811-8.448-2.866-8.872.358,4.277,1.09,6.676,1.743,8.027C2186.855,752.824,2191.055,728.895,2195.749,726.228Z" transform="translate(-2133.04 -724.621)" fill="#163560"/>
          <path id="Path_81598" data-name="Path 81598" d="M2215.934,846.4c-.042.019,4.114,2.177,7.24,1.322,2.941-.8,4.862-4.615,4.821-4.623-1.245-.247-1.6-1.959-1.578-9.313l-.563.111-9.467,1.875s.215,2.979.222,5.786C2216.616,843.917,2216.473,846.152,2215.934,846.4Z" transform="translate(-2153.277 -810.436)" fill="#ffb27d"/>
          <path id="Path_81599" data-name="Path 81599" d="M2227.274,738.161a7.567,7.567,0,0,0-10.533-.254S2220.153,737.317,2227.274,738.161Z" transform="translate(-2153.912 -733.467)" fill="#e37970"/>
          <path id="Path_81600" data-name="Path 81600" d="M2218.058,836.182s.215,2.979.222,5.786c5.3-.149,8.1-4.982,9.245-7.66Z" transform="translate(-2154.947 -810.844)" fill="#d68d5d"/>
          <path id="Path_81601" data-name="Path 81601" d="M2206.594,758.015a27.843,27.843,0,0,0,3.443-8.137c.475-2.678-.888-12.6-10.863-11.174a13.553,13.553,0,0,0-5.62,2.125c-2.165,1.463-5.291,4.62-1.8,13.281l.908,2.926Z" transform="translate(-2133.04 -735.582)" fill="#163560"/>
          <path id="Path_81602" data-name="Path 81602" d="M2041.679,1246.1l5.018.153,5.432.167a107.217,107.217,0,0,0,19.583-36.36q.246-.781.52-1.581c3.852-11.23,11.836-25.326,16.043-38.085.67-2.032,1.271-3.945,1.811-5.756.173-.58.341-1.15.5-1.71a135.335,135.335,0,0,0,4.826-25.405l-30.383.243A566.382,566.382,0,0,1,2041.679,1246.1Z" transform="translate(-2016.299 -1049.196)" fill="#a8d29f"/>
          <path id="Path_81603" data-name="Path 81603" d="M2154.541,912.317c.076,14.458-2.121,20.661-2.121,20.661a40.827,40.827,0,0,0,28.47,1.744c.182-.057,12.8-2.937,12.8-2.937-.259-.585-2.56-10.329-2.812-10.866-3.264-7.01-5.743-10.084-6.13-12.239a45.837,45.837,0,0,1-.376-12.113,97.2,97.2,0,0,1,3.749-19.022,99.719,99.719,0,0,1-12.652-4.242c-1.009,1.256-3.983,2.525-6.657,2.465-3.08-.068-4.042-1.37-3.928-2.837-3.282,1.826-5.891,3.563-5.891,3.563-2.789,4.845-8.447,9.55-8.856,16.982C2150.037,895.3,2154.539,911.913,2154.541,912.317Z" transform="translate(-2101.556 -841.204)" fill="#e7f1fd"/>
          <path id="Path_81604" data-name="Path 81604" d="M2276.1,972.255c1.328,1.88,3.874,13.3,10.209,14.741-3.264-8.143-5.743-11.713-6.13-14.216a61.77,61.77,0,0,1-.376-14.07c-2.12-3.717-3.7-6.265-3.7-6.265-.167-.6-3.37-10.507-4.4-1.653S2274.614,970.152,2276.1,972.255Z" transform="translate(-2196.982 -899.53)" fill="#5f9aa8"/>
          <path id="Path_81605" data-name="Path 81605" d="M2194.449,777.78s12.533.207,12.542-7.6,1.632-13.038-6.37-13.5-9.56,2.515-10.2,5.12S2191.189,777.525,2194.449,777.78Z" transform="translate(-2133.107 -749.784)" fill="#ffb27d"/>
          <path id="Path_81606" data-name="Path 81606" d="M2187.647,751.1c1.934-2.344,3.4-1.835,4.218-1.131,2.708-4.047,11.269,1.806,11.269,1.806a14.914,14.914,0,0,0,4.878,8.811s-2.284,1.411-7.551.057c-4.145-1.066-7.153-6.965-8.246-9.43a9.942,9.942,0,0,0-2.789,3.693c-.625,1.988-.906,6.081-2.1,5.941C2187.327,760.851,2184.741,754.626,2187.647,751.1Z" transform="translate(-2129.957 -743.429)" fill="#163560"/>
          <path id="Path_81607" data-name="Path 81607" d="M2259.872,1681.806a13.9,13.9,0,0,0,.653,5.914s.84,3.825-2.928,3.9-4.692-.284-4.265-2.63,1.238-6.4,1.238-6.4Z" transform="translate(-2182.6 -1477.045)" fill="#ffb27d"/>
          <path id="Path_81608" data-name="Path 81608" d="M2252.011,1714.861l.012.009h7.8l.012-.009a20.107,20.107,0,0,0-.27-5.77c-4.266,4.079-6.937-.1-6.937-.1C2251.931,1710.733,2252.011,1714.861,2252.011,1714.861Z" transform="translate(-2181.635 -1498.413)" fill="#c45446"/>
          <path id="Path_81609" data-name="Path 81609" d="M1992,1674.592s6.946-7.888,9.079-11.811l5.165,2.646L1994.7,1676.27l-2.7-.355Z" transform="translate(-1977.245 -1462.09)" fill="#ffb27d"/>
          <path id="Path_81610" data-name="Path 81610" d="M1972.095,1688.155h9.637a15.712,15.712,0,0,0,2.65-4.326,4.662,4.662,0,0,1,3.146-2.145v6.471h1.994l1.846-6.881c1.229-2.305.306-4.42-.559-6.242-1.006,0-3.925.725-9.056,6.621a6.673,6.673,0,0,1-5.4,2.57.491.491,0,0,1-.076.041C1973.357,1685.6,1972.4,1687.251,1972.095,1688.155Z" transform="translate(-1961.6 -1471.72)" fill="#c45446"/>
          <path id="Path_81611" data-name="Path 81611" d="M1969.476,882.158s8.227,4.6,11.166,5.926c1.045.471,2.938,1.352,4.873,2.256,1.168.545,2.35,1.1,3.373,1.582a4.24,4.24,0,0,0,5.025-1.084c4.455-5.2,15.984-16.476,27.89-17.889l.041-.018-.005.013.015,0-.066.128c-.669,1.664-7.2,17.972-7.4,21.412-.213,3.625-.853,59.285-.853,59.285s.427,2.559-4.478,1.493-6.184-2.132-6.184-2.132,4.692-34.334,3.412-46.277a26.567,26.567,0,0,1,.5-7.7,61.164,61.164,0,0,1-15.8,6.346,71.927,71.927,0,0,1-8.144-4.461,51.114,51.114,0,0,1-6.867-5.525,100.812,100.812,0,0,1-7.805-8.983Z" transform="translate(-1958.514 -841.204)" fill="#e37970"/>
          <path id="Path_81612" data-name="Path 81612" d="M2065.137,1327.135l5.432.167a107.214,107.214,0,0,0,19.583-36.36q.247-.78.52-1.581c3.852-11.23,11.836-25.326,16.044-38.085.669-2.032,1.271-3.945,1.811-5.756.173-.58.341-1.15.5-1.71l-4.474-3.4s-13.433,21.752-17.592,42.223C2083.349,1300.418,2068.882,1321.814,2065.137,1327.135Z" transform="translate(-2034.739 -1130.075)" fill="#82b378"/>
          <path id="Path_81613" data-name="Path 81613" d="M2236.24,1263.33c-.077,9.955.427,32.841,1.723,42.317h4.811c2.659,0,3.985-.038,3.985-.038,3.252-16.474,5.566-30.105,7.251-41.852,1.382-9.639,2.61-17.9,3.555-25.017.951-7.159,1.612-13.154,1.849-18.219q.055-1.2.079-2.327t.013-2.207l-26.252-2.559C2233.584,1230.87,2236.282,1257.544,2236.24,1263.33Z" transform="translate(-2166.892 -1108.862)" fill="#a8d29f"/>
          <path id="Path_81614" data-name="Path 81614" d="M2277.756,1331.711c2.659,0,3.986-.039,3.986-.039,3.252-16.474,5.566-30.105,7.251-41.852,1.382-9.639,2.61-17.9,3.555-25.017.951-7.159,1.612-13.154,1.849-18.219l-9.633,5.666s6.148,2.169,3.8,18.59S2281.021,1329.386,2277.756,1331.711Z" transform="translate(-2201.875 -1134.927)" fill="#82b378"/>
          <path id="Path_81615" data-name="Path 81615" d="M2239,954.069s1.849,6.681,8.247,5.828,15.5-4.692,15.5-4.692-2.734-8.639-6.134-19.989c-4.116-13.74-9.21-31.453-11.612-42.625a69.148,69.148,0,0,1-1.305-7.618l-5.418-10.3s-7.8,17.767-8.23,22.245S2239,954.069,2239,954.069Z" transform="translate(-2164.354 -842.572)" fill="#e37970"/>
          <path id="Path_81616" data-name="Path 81616" d="M2149,1001.006c3.079.4,4.26,2.041,4.64,4.249a9.377,9.377,0,0,0,1.341,3.2c3.067.164,10.372.562,16.509.951l.506,8.049a91.9,91.9,0,0,1-18.366-4.347,4.8,4.8,0,0,1-2.09-1.136c-4.418-3.618-6.926-9.678-6.934-10.546S2145.921,1000.6,2149,1001.006Z" transform="translate(-2097.208 -941.663)" fill="#ffb27d"/>
          <path id="Path_81617" data-name="Path 81617" d="M2273.266,972.151c.285,7.251,1.992,21.326,17.2,28.86.041.019.081.041.122.057-4.116-13.74-9.211-31.453-11.612-42.625C2276.185,962.618,2273.11,968.159,2273.266,972.151Z" transform="translate(-2198.341 -908.424)" fill="#c45446"/>
          <path id="Path_81618" data-name="Path 81618" d="M2265.9,874.671s13.012.923,16.14,7.889,4.123,30.14.142,36.964c0,0-5.48,1.561-15.174-.252l-.358-.068s-3.092-7.571-.32-9.064c0,0,8.175.426,7.322-2.275S2265.9,874.671,2265.9,874.671Z" transform="translate(-2191.987 -842.572)" fill="#e37970"/>
          <g id="Group_118069" data-name="Group 118069" transform="translate(0 35.398)">
            <path id="Path_81619" data-name="Path 81619" d="M1925.178,890.183a7.823,7.823,0,0,1,8.767,5.468l-1.307,4.373c-2.158.3-4.046-.264-5.786-2.754s-2.219-1.534-3.325-3.386C1922.027,891.371,1924.374,890.435,1925.178,890.183Z" transform="translate(-1923.037 -890.096)" fill="#ffb27d"/>
            <path id="Path_81620" data-name="Path 81620" d="M1980.641,921.989c1.045.471,2.938,1.352,4.873,2.256-1.035,1.838-2.33,5.178-2.674,10.7a44.672,44.672,0,0,1-7.072-5.7,93.755,93.755,0,0,1-7.6-8.812l1.307-4.373S1977.7,920.663,1980.641,921.989Z" transform="translate(-1958.514 -910.508)" fill="#ffb27d"/>
          </g>
        </g>
        <path id="Path_81621" data-name="Path 81621" d="M1921.874,902.942l-17.7.777a.244.244,0,0,1-.254-.227h0a.244.244,0,0,1,.218-.259l17.618-1.9a.806.806,0,0,1,.891.747h0A.806.806,0,0,1,1921.874,902.942Z" transform="translate(-1547.258 -805.63)" fill="#163560"/>
        <path id="Path_81622" data-name="Path 81622" d="M776.532,1734.77H237.307a.641.641,0,0,1-.639-.64h0a.641.641,0,0,1,.639-.639H776.532a.641.641,0,0,1,.639.639h0A.641.641,0,0,1,776.532,1734.77Z" transform="translate(-236.668 -1459.774)" fill="#202f4e"/>
      </g>
    </g>
  </g>
</svg>
