<svg xmlns="http://www.w3.org/2000/svg" xmlns:xlink="http://www.w3.org/1999/xlink" width="222" height="77" viewBox="0 0 222 77">
  <defs>
    <clipPath id="clip-Artboard_4">
      <rect width="222" height="77"/>
    </clipPath>
  </defs>
  <g id="Artboard_4" data-name="Artboard – 4" clip-path="url(#clip-Artboard_4)">
    <rect width="222" height="77" fill="#F5F6FB"/>
    <g id="Group_118482" data-name="Group 118482" transform="translate(968.382 -353.973)">
      <g id="Group_117899" data-name="Group 117899" transform="translate(-884.22 376.249)">
        <path id="Path_81387" data-name="Path 81387" d="M230.454,465.158q0,4.616-2.328,7.024t-6.944,2.408a10.879,10.879,0,0,1-4.957-1.063,7.565,7.565,0,0,1-3.231-3.011,8.946,8.946,0,0,1-1.124-4.555v-.723h5.7a4.8,4.8,0,0,0,.823,3.111,3.135,3.135,0,0,0,2.549.983,3.172,3.172,0,0,0,2.067-.582,2.713,2.713,0,0,0,.923-1.465,8.9,8.9,0,0,0,.221-2.127V446.213h6.3Z" transform="translate(-211.871 -443.845)" fill="#03007f"/>
        <path id="Path_81388" data-name="Path 81388" d="M312.607,441.306a3.047,3.047,0,0,1-1.184,1.144,3.744,3.744,0,0,1-3.452,0,3.041,3.041,0,0,1-1.184-1.144,3.422,3.422,0,0,1,0-3.291,3.041,3.041,0,0,1,1.184-1.144,3.744,3.744,0,0,1,3.452,0,3.047,3.047,0,0,1,1.184,1.144,3.424,3.424,0,0,1,0,3.291Zm-.06,4.5v20.751h-5.7V445.8Z" transform="translate(-283.448 -436.449)" fill="#03007f"/>
        <path id="Path_81389" data-name="Path 81389" d="M366.371,489.409a9.388,9.388,0,0,1-3.693,3.813,11.837,11.837,0,0,1-11-.02,9.251,9.251,0,0,1-3.652-3.833,13.465,13.465,0,0,1,0-11.479,9.256,9.256,0,0,1,3.652-3.833,11.924,11.924,0,0,1,11.078,0,9.24,9.24,0,0,1,3.653,3.853,12.346,12.346,0,0,1,1.284,5.74A12,12,0,0,1,366.371,489.409Zm-5.6-.9A8.3,8.3,0,0,0,362,483.649a9.107,9.107,0,0,0-1.124-4.756,3.974,3.974,0,0,0-3.693-1.866,4.057,4.057,0,0,0-3.492,1.726,10.292,10.292,0,0,0-.02,9.773,4.535,4.535,0,0,0,7.1-.02Z" transform="translate(-314.033 -463.902)" fill="#03007f"/>
        <path id="Path_81390" data-name="Path 81390" d="M458.938,451.593a2.943,2.943,0,0,0-1.345-2.368,6.775,6.775,0,0,0-3.673-.8,6.139,6.139,0,0,0-3.151.722,2.261,2.261,0,0,0-1.224,2.047,3.1,3.1,0,0,0,.281,1.425,2.252,2.252,0,0,0,1.023.923,12.1,12.1,0,0,0,2.188.783l3.813,1a33.269,33.269,0,0,1,4.716,1.585,8.161,8.161,0,0,1,3.151,2.448A6.7,6.7,0,0,1,466,463.634a8.152,8.152,0,0,1-1.365,4.7,8.893,8.893,0,0,1-3.994,3.131,15.932,15.932,0,0,1-6.281,1.124,17.984,17.984,0,0,1-5.8-.9,9.617,9.617,0,0,1-4.335-2.85,7.176,7.176,0,0,1-1.666-4.837v-.2H448.7v.08a3.088,3.088,0,0,0,1.706,2.95,9.167,9.167,0,0,0,4.315.9,7.86,7.86,0,0,0,3.693-.783A2.515,2.515,0,0,0,459.9,464.6a2.776,2.776,0,0,0-1.084-2.248,10.112,10.112,0,0,0-3.653-1.565l-5.5-1.485q-6.182-1.645-6.181-7.305a7.318,7.318,0,0,1,1.465-4.6,8.951,8.951,0,0,1,3.893-2.87,14.3,14.3,0,0,1,5.318-.963,16.477,16.477,0,0,1,5.5.863,8.579,8.579,0,0,1,3.913,2.669,6.906,6.906,0,0,1,1.465,4.5Z" transform="translate(-386.612 -441.839)" fill="#03007f"/>
        <path id="Path_81391" data-name="Path 81391" d="M556.205,441.306a3.042,3.042,0,0,1-1.184,1.144,3.744,3.744,0,0,1-3.452,0,3.042,3.042,0,0,1-1.184-1.144,3.423,3.423,0,0,1,0-3.291,3.042,3.042,0,0,1,1.184-1.144,3.744,3.744,0,0,1,3.452,0,3.041,3.041,0,0,1,1.184,1.144,3.423,3.423,0,0,1,0,3.291Zm-.06,4.5v20.751h-5.7V445.8Z" transform="translate(-467.965 -436.449)" fill="#03007f"/>
        <path id="Path_81392" data-name="Path 81392" d="M604.993,476.023v-2.77h5.458V492.72a9.713,9.713,0,0,1-1.144,4.817,7.744,7.744,0,0,1-3.492,3.191,13.391,13.391,0,0,1-5.88,1.144,12.842,12.842,0,0,1-4.516-.742A7.394,7.394,0,0,1,592.269,499a5.538,5.538,0,0,1-1.284-3.311h5.66a2.61,2.61,0,0,0,1.264,1.766,5.007,5.007,0,0,0,2.508.562,4.5,4.5,0,0,0,3.392-1.224,4.852,4.852,0,0,0,1.184-3.512v-2.288h-.08a5.59,5.59,0,0,1-2.388,2.368,7.536,7.536,0,0,1-3.592.843,7.983,7.983,0,0,1-4.736-1.365,8.214,8.214,0,0,1-2.89-3.813,15.383,15.383,0,0,1-.963-5.659,13.678,13.678,0,0,1,1-5.278,9.185,9.185,0,0,1,2.97-3.913,7.51,7.51,0,0,1,4.656-1.485,7.131,7.131,0,0,1,3.572.823,6.241,6.241,0,0,1,2.368,2.509Zm-7.867,12.021a3.574,3.574,0,0,0,3.291,1.826,3.961,3.961,0,0,0,2.489-.8,4.966,4.966,0,0,0,1.585-2.188,8.589,8.589,0,0,0,.542-3.151,9.836,9.836,0,0,0-1.064-4.736,3.753,3.753,0,0,0-3.592-1.967,3.6,3.6,0,0,0-2.348.8,4.893,4.893,0,0,0-1.485,2.207,9.641,9.641,0,0,0-.5,3.251A9.238,9.238,0,0,0,597.126,488.044Z" transform="translate(-498.551 -463.902)" fill="#03007f"/>
        <path id="Path_81393" data-name="Path 81393" d="M710.025,494h-5.7v-11.4a7.218,7.218,0,0,0-.9-4.134,3.218,3.218,0,0,0-2.79-1.244,3.562,3.562,0,0,0-2.97,1.264,6.656,6.656,0,0,0-1,4.114V494h-5.7V473.254h5.459v2.89h.08a7.326,7.326,0,0,1,2.629-2.529,6.92,6.92,0,0,1,3.472-.923q3.733,0,5.579,2.067T710.025,481Z" transform="translate(-574.765 -463.902)" fill="#03007f"/>
      </g>
      <g id="Group_117900" data-name="Group 117900" transform="translate(-965.384 356.973)">
        <path id="Path_81394" data-name="Path 81394" d="M-62.6,417.149a35.25,35.25,0,0,1-49.851,0,35.25,35.25,0,0,1,0-49.851,35.25,35.25,0,0,1,49.851,0A35.25,35.25,0,0,1-62.6,417.149Z" transform="translate(122.778 -356.973)" fill="#00a59b"/>
        <path id="Path_81395" data-name="Path 81395" d="M-30.092,421.062l-17.276,16.156a4.546,4.546,0,0,1-.8.579.04.04,0,0,1-.023.045l-5.675,2.618a1.342,1.342,0,0,1-1.791-1.757l2.536-5.783a.04.04,0,0,1,.047-.023,4.531,4.531,0,0,1,.581-.8l16.156-17.276c1.915-2.111,5.032-2.378,6.825-.585h0C-27.715,416.03-27.982,419.147-30.092,421.062Zm-7.8,3.227,5.735-5.735a1.178,1.178,0,0,0,0-1.667h0a1.178,1.178,0,0,0-1.667,0l-5.735,5.735a1.179,1.179,0,0,0,0,1.667h0A1.179,1.179,0,0,0-37.892,424.289Zm5.707,24.4a22.343,22.343,0,0,0,7.151-15.657,22.586,22.586,0,0,0-.223-4.061,2.7,2.7,0,0,0-3.059-2.277,2.7,2.7,0,0,0-2.277,3.059,17.209,17.209,0,0,1,.169,3.09,16.985,16.985,0,0,1-5.438,11.9,16.993,16.993,0,0,1-12.255,4.587,16.985,16.985,0,0,1-11.9-5.438A16.986,16.986,0,0,1-64.6,431.642a17.117,17.117,0,0,1,17.692-16.487,17.321,17.321,0,0,1,2.208.22,2.7,2.7,0,0,0,3.1-2.22,2.7,2.7,0,0,0-2.22-3.1,22.737,22.737,0,0,0-2.9-.29,22.522,22.522,0,0,0-23.272,21.687,22.343,22.343,0,0,0,6.031,16.122,22.341,22.341,0,0,0,15.657,7.151q.406.014.809.014A22.334,22.334,0,0,0-32.185,448.693Z" transform="translate(82.807 -396.95)" fill="#fff"/>
      </g>
    </g>
  </g>
</svg>
